<?xml version='1.0' encoding='utf-8'?>
<svg xmlns="http://www.w3.org/2000/svg" id="Layer_1" data-name="Layer 1" viewBox="0 0 1200 1200"><defs><style>.cls-1{fill:#004573;}.cls-2,.cls-3,.cls-4,.cls-5,.cls-6,.cls-7,.cls-8{fill:none;stroke-miterlimit:10;}.cls-2,.cls-3{stroke:#999;}.cls-2,.cls-5{stroke-width:10px;}.cls-3{stroke-width:3px;}.cls-4,.cls-5,.cls-6,.cls-7,.cls-8{stroke:#e6e6e6;}.cls-4{stroke-width:11.54px;}.cls-6{stroke-width:14.9px;}.cls-7{stroke-width:8.59px;}.cls-8{stroke-width:8.63px;}</style></defs><title>Blueprint</title><rect class="cls-1" width="1200" height="1200"/><rect class="cls-2" x="50" y="50" width="1100" height="1100"/><line class="cls-3" x1="499.5" y1="49.5" x2="499.5" y2="1149.5"/><line class="cls-3" x1="199.5" y1="49.5" x2="199.5" y2="1149.5"/><line class="cls-3" x1="249.5" y1="49.5" x2="249.5" y2="1149.5"/><line class="cls-3" x1="149.5" y1="49.5" x2="149.5" y2="1149.5"/><line class="cls-3" x1="399.5" y1="49.5" x2="399.5" y2="1149.5"/><line class="cls-3" x1="449.5" y1="49.5" x2="449.5" y2="1149.5"/><line class="cls-3" x1="349.5" y1="49.5" x2="349.5" y2="1149.5"/><line class="cls-3" x1="299.5" y1="49.5" x2="299.5" y2="1149.5"/><line class="cls-3" x1="549.5" y1="50" x2="549.5" y2="1150"/><line class="cls-3" x1="599.5" y1="50" x2="599.5" y2="1150"/><line class="cls-3" x1="499.5" y1="50" x2="499.5" y2="1150"/><line class="cls-3" x1="99.5" y1="49.5" x2="99.5" y2="1149.5"/><line class="cls-3" x1="749.5" y1="50" x2="749.5" y2="1150"/><line class="cls-3" x1="799.5" y1="50" x2="799.5" y2="1150"/><line class="cls-3" x1="699.5" y1="50" x2="699.5" y2="1150"/><line class="cls-3" x1="649.5" y1="50" x2="649.5" y2="1150"/><line class="cls-3" x1="849.5" y1="50" x2="849.5" y2="1150"/><line class="cls-3" x1="999.5" y1="50" x2="999.5" y2="1150"/><line class="cls-3" x1="1049.5" y1="50" x2="1049.5" y2="1150"/><line class="cls-3" x1="949.5" y1="50" x2="949.5" y2="1150"/><line class="cls-3" x1="899.5" y1="50" x2="899.5" y2="1150"/><line class="cls-3" x1="1099.5" y1="50" x2="1099.5" y2="1150"/><line class="cls-3" x1="49.25" y1="699.75" x2="1149.25" y2="699.75"/><line class="cls-3" x1="49.25" y1="999.75" x2="1149.25" y2="999.75"/><line class="cls-3" x1="49.25" y1="949.75" x2="1149.25" y2="949.75"/><line class="cls-3" x1="49.25" y1="1049.75" x2="1149.25" y2="1049.75"/><line class="cls-3" x1="49.25" y1="799.75" x2="1149.25" y2="799.75"/><line class="cls-3" x1="49.25" y1="749.75" x2="1149.25" y2="749.75"/><line class="cls-3" x1="49.25" y1="849.75" x2="1149.25" y2="849.75"/><line class="cls-3" x1="49.25" y1="899.75" x2="1149.25" y2="899.75"/><line class="cls-3" x1="49.75" y1="649.75" x2="1149.75" y2="649.75"/><line class="cls-3" x1="49.75" y1="599.75" x2="1149.75" y2="599.75"/><line class="cls-3" x1="49.75" y1="699.75" x2="1149.75" y2="699.75"/><line class="cls-3" x1="49.25" y1="1099.75" x2="1149.25" y2="1099.75"/><line class="cls-3" x1="49.75" y1="449.75" x2="1149.75" y2="449.75"/><line class="cls-3" x1="49.75" y1="399.75" x2="1149.75" y2="399.75"/><line class="cls-3" x1="49.75" y1="499.75" x2="1149.75" y2="499.75"/><line class="cls-3" x1="49.75" y1="549.75" x2="1149.75" y2="549.75"/><line class="cls-3" x1="49.75" y1="349.75" x2="1149.75" y2="349.75"/><line class="cls-3" x1="49.75" y1="199.75" x2="1149.75" y2="199.75"/><line class="cls-3" x1="49.75" y1="149.75" x2="1149.75" y2="149.75"/><line class="cls-3" x1="49.75" y1="249.75" x2="1149.75" y2="249.75"/><line class="cls-3" x1="49.75" y1="299.75" x2="1149.75" y2="299.75"/><line class="cls-3" x1="49.75" y1="99.75" x2="1149.75" y2="99.75"/><rect class="cls-4" x="249" y="350" width="700" height="600"/><rect class="cls-5" x="299.5" y="799.5" width="100" height="100"/><rect class="cls-5" x="450" y="800" width="100" height="100"/><rect class="cls-5" x="600" y="800" width="100" height="100"/><rect class="cls-6" x="750" y="800" width="149" height="149"/><rect class="cls-5" x="299.5" y="599.5" width="100" height="100"/><rect class="cls-5" x="450" y="600" width="100" height="100"/><rect class="cls-5" x="600" y="600" width="100" height="100"/><rect class="cls-7" x="750" y="600" width="149" height="49.5"/><rect class="cls-8" x="750" y="400" width="149" height="50"/><rect class="cls-5" x="299.5" y="398.5" width="100" height="100"/><rect class="cls-5" x="450" y="399" width="100" height="100"/><rect class="cls-5" x="600" y="399" width="100" height="100"/><polygon class="cls-5" points="999 350 199 350 249 250 949 250 999 350"/></svg>